<svg width="17" height="16" viewBox="0 0 17 16" fill="none" xmlns="http://www.w3.org/2000/svg">
    <path d="M14.15 2.35001C13.3118 1.50428 12.2944 0.857624 11.1728 0.457801C10.0512 0.0579789 8.85416 -0.0847989 7.67001 0.040012C4.00001 0.410012 0.980006 3.39001 0.570006 7.06001C0.0200061 11.91 3.77001 16 8.50001 16C10.0101 16 11.4892 15.5715 12.7655 14.7643C14.0418 13.9572 15.0628 12.8044 15.71 11.44C16.03 10.77 15.55 10 14.81 10C14.44 10 14.09 10.2 13.93 10.53C13.3494 11.779 12.3564 12.79 11.1179 13.3928C9.87948 13.9957 8.47121 14.1536 7.13001 13.84C4.91001 13.35 3.12001 11.54 2.65001 9.32001C2.45244 8.44227 2.45473 7.53135 2.6567 6.65461C2.85868 5.77787 3.25517 4.95776 3.81686 4.25493C4.37854 3.55211 5.09105 2.98454 5.90168 2.59423C6.7123 2.20392 7.60031 2.00084 8.50001 2.00001C10.16 2.00001 11.64 2.69001 12.72 3.78001L11.21 5.29001C10.58 5.92001 11.02 7.00001 11.91 7.00001H15.5C16.05 7.00001 16.5 6.55001 16.5 6.00001V2.41001C16.5 1.52001 15.42 1.07001 14.79 1.70001L14.15 2.35001Z" fill="#F2F2F2"/>
</svg>
